<svg width="18" height="20" viewBox="0 0 18 20" fill="none" xmlns="http://www.w3.org/2000/svg">
<path d="M15.125 14.08C14.3967 14.08 13.745 14.38 13.2467 14.85L6.41375 10.7C6.46167 10.47 6.5 10.24 6.5 10C6.5 9.76 6.46167 9.53 6.41375 9.3L13.17 5.19C13.6875 5.69 14.3679 6 15.125 6C15.8875 6 16.6188 5.68393 17.1579 5.12132C17.6971 4.55871 18 3.79565 18 3C18 2.20435 17.6971 1.44129 17.1579 0.87868C16.6188 0.316071 15.8875 0 15.125 0C14.3625 0 13.6312 0.316071 13.0921 0.87868C12.5529 1.44129 12.25 2.20435 12.25 3C12.25 3.24 12.2883 3.47 12.3362 3.7L5.58 7.81C5.0625 7.31 4.38208 7 3.625 7C2.8625 7 2.13124 7.31607 1.59207 7.87868C1.0529 8.44129 0.75 9.20435 0.75 10C0.75 10.7956 1.0529 11.5587 1.59207 12.1213C2.13124 12.6839 2.8625 13 3.625 13C4.38208 13 5.0625 12.69 5.58 12.19L12.4033 16.34C12.3554 16.55 12.3267 16.77 12.3267 17C12.3267 18.61 13.5821 19.91 15.125 19.91C16.6679 19.91 17.9233 18.61 17.9233 17C17.9233 16.2256 17.6285 15.4829 17.1037 14.9352C16.5789 14.3876 15.8672 14.08 15.125 14.08V14.08Z" fill="black"/>
</svg>
