<svg width="46" height="46" viewBox="0 0 46 46" fill="none" xmlns="http://www.w3.org/2000/svg">
<g clip-path="url(#clip0_371_438)">
<path d="M22.7647 45.5294C35.3373 45.5294 45.5294 35.3373 45.5294 22.7647C45.5294 10.1921 35.3373 0 22.7647 0C10.1921 0 0 10.1921 0 22.7647C0 35.3373 10.1921 45.5294 22.7647 45.5294Z" fill="black"/>
<path d="M19.1867 14.256H26.3315C26.9823 14.2516 27.6277 14.3758 28.2304 14.6214C28.8332 14.8671 29.3814 15.2294 29.8437 15.6876C30.3061 16.1458 30.6733 16.6908 30.9244 17.2913C31.1756 17.8918 31.3056 18.5359 31.307 19.1868V26.3316C31.3145 26.987 31.1909 27.6374 30.9436 28.2445C30.6962 28.8515 30.3299 29.403 29.8664 29.8665C29.4029 30.33 28.8514 30.6963 28.2444 30.9437C27.6373 31.1911 26.9869 31.3146 26.3315 31.3071H19.1867C17.878 31.3042 16.6238 30.7822 15.6994 29.8557C14.775 28.9292 14.2559 27.6739 14.2559 26.3651V19.1868C14.2544 18.5389 14.3809 17.897 14.6282 17.2981C14.8755 16.6992 15.2386 16.1551 15.6968 15.6969C16.155 15.2387 16.6991 14.8756 17.298 14.6283C17.8969 14.381 18.5388 14.2545 19.1867 14.256V14.256ZM19.0078 15.9555C18.1983 15.9555 17.4219 16.2771 16.8494 16.8495C16.277 17.422 15.9554 18.1984 15.9554 19.0079V26.4993C15.9539 26.9016 16.0317 27.3003 16.1843 27.6725C16.3369 28.0448 16.5614 28.3833 16.8448 28.6689C17.1282 28.9544 17.4652 29.1813 17.8363 29.3366C18.2074 29.4919 18.6055 29.5726 19.0078 29.5741H26.4992C27.309 29.5653 28.0832 29.2398 28.6558 28.6671C29.2285 28.0945 29.5541 27.3203 29.5628 26.5104V19.0079C29.5628 18.1954 29.24 17.4162 28.6655 16.8416C28.0909 16.2671 27.3117 15.9443 26.4992 15.9443L19.0078 15.9555ZM27.2148 17.2301C27.4988 17.2341 27.7706 17.3461 27.9751 17.5432C28.1482 17.7492 28.2413 18.0107 28.2372 18.2797C28.2331 18.5488 28.1321 18.8073 27.9527 19.0079C27.8303 19.1571 27.6714 19.272 27.4915 19.3416C27.3115 19.4111 27.1166 19.433 26.9257 19.4049C26.7348 19.3768 26.5545 19.2999 26.4021 19.1815C26.2498 19.063 26.1307 18.9072 26.0564 18.7292C25.9822 18.5511 25.9552 18.3569 25.9782 18.1653C26.0012 17.9737 26.0734 17.7914 26.1878 17.636C26.3021 17.4806 26.4547 17.3574 26.6308 17.2785C26.8068 17.1995 27.0003 17.1675 27.1924 17.1854L27.2148 17.2301ZM22.7423 18.5048C23.731 18.5016 24.6901 18.8415 25.4562 19.4665C26.2222 20.0915 26.7478 20.9629 26.9431 21.9321C27.1384 22.9013 26.9915 23.9082 26.5273 24.7812C26.0631 25.6541 25.3105 26.339 24.3978 26.719C23.4851 27.099 22.4688 27.1506 21.5223 26.865C20.5758 26.5794 19.7576 25.9743 19.2074 25.1529C18.6572 24.3315 18.409 23.3446 18.5052 22.3606C18.6013 21.3766 19.0358 20.4565 19.7346 19.7571C20.5323 18.9586 21.6137 18.5084 22.7423 18.5048V18.5048ZM22.7423 20.2155C22.1495 20.2133 21.5743 20.4168 21.1148 20.7915C20.6553 21.1661 20.3401 21.6885 20.2228 22.2697C20.1056 22.8508 20.1937 23.4546 20.472 23.978C20.7503 24.5015 21.2017 24.9121 21.749 25.1399C22.2963 25.3677 22.9057 25.3985 23.4732 25.227C24.0407 25.0556 24.5312 24.6925 24.8608 24.1998C25.1905 23.707 25.339 23.1152 25.2809 22.5252C25.2228 21.9352 24.9619 21.3836 24.5425 20.9646C24.3104 20.7284 24.0338 20.5406 23.7286 20.412C23.4234 20.2834 23.0958 20.2166 22.7647 20.2155H22.7423Z" fill="white"/>
</g>
<defs>
<clipPath id="clip0_371_438">
<rect width="45.5294" height="45.5294" fill="white"/>
</clipPath>
</defs>
</svg>
