<svg width="20" height="19" viewBox="0 0 20 19" fill="none" xmlns="http://www.w3.org/2000/svg">
<path d="M10.1372 15.55L10.0413 15.65L9.93593 15.55C5.38384 11.24 2.37467 8.39 2.37467 5.5C2.37467 3.5 3.81217 2 5.72884 2C7.20467 2 8.64217 3 9.15009 4.36H10.9326C11.4405 3 12.878 2 14.3538 2C16.2705 2 17.708 3.5 17.708 5.5C17.708 8.39 14.6988 11.24 10.1372 15.55ZM14.3538 0C12.6863 0 11.0859 0.81 10.0413 2.08C8.99676 0.81 7.39634 0 5.72884 0C2.77717 0 0.458008 2.41 0.458008 5.5C0.458008 9.27 3.71634 12.36 8.65176 17.03L10.0413 18.35L11.4309 17.03C16.3663 12.36 19.6247 9.27 19.6247 5.5C19.6247 2.41 17.3055 0 14.3538 0Z" fill="black"/>
</svg>
