<svg width="25" height="25" viewBox="0 0 25 25" fill="none" xmlns="http://www.w3.org/2000/svg">
<path d="M10.0137 3.45578C11.7376 3.45578 13.3909 4.1406 14.6099 5.35959C15.8289 6.57857 16.5137 8.23187 16.5137 9.95578C16.5137 11.5658 15.9237 13.0458 14.9537 14.1858L15.2237 14.4558H16.0137L21.0137 19.4558L19.5137 20.9558L14.5137 15.9558V15.1658L14.2437 14.8958C13.1037 15.8658 11.6237 16.4558 10.0137 16.4558C8.28976 16.4558 6.63646 15.771 5.41748 14.552C4.19849 13.333 3.51367 11.6797 3.51367 9.95578C3.51367 8.23187 4.19849 6.57857 5.41748 5.35959C6.63646 4.1406 8.28976 3.45578 10.0137 3.45578V3.45578ZM10.0137 5.45578C7.51367 5.45578 5.51367 7.45578 5.51367 9.95578C5.51367 12.4558 7.51367 14.4558 10.0137 14.4558C12.5137 14.4558 14.5137 12.4558 14.5137 9.95578C14.5137 7.45578 12.5137 5.45578 10.0137 5.45578Z" fill="black"/>
</svg>
