<svg width="46" height="46" viewBox="0 0 46 46" fill="none" xmlns="http://www.w3.org/2000/svg">
<g clip-path="url(#clip0_371_441)">
<path d="M22.8824 45.5294C35.455 45.5294 45.6471 35.3373 45.6471 22.7647C45.6471 10.1921 35.455 0 22.8824 0C10.3098 0 0.117676 10.1921 0.117676 22.7647C0.117676 35.3373 10.3098 45.5294 22.8824 45.5294Z" fill="black"/>
<path d="M28.5512 21.8031C25.4764 19.9806 20.3331 19.7905 17.3701 20.685C17.1447 20.7494 16.9033 20.725 16.6953 20.6168C16.4874 20.5087 16.3287 20.325 16.252 20.1036C16.1938 19.8739 16.2279 19.6305 16.347 19.4256C16.4662 19.2208 16.6609 19.0708 16.8893 19.0078C20.2437 18.0015 25.9237 18.1916 29.4792 20.3048C29.6833 20.4323 29.8314 20.6325 29.8936 20.8649C29.9559 21.0973 29.9277 21.3447 29.8147 21.5571C29.666 21.7393 29.4582 21.8636 29.2274 21.9085C28.9966 21.9535 28.7574 21.9162 28.5512 21.8031V21.8031ZM28.4506 24.4977C28.4012 24.5805 28.3358 24.6527 28.2583 24.71C28.1808 24.7673 28.0926 24.8086 27.9989 24.8315C27.9053 24.8544 27.808 24.8584 27.7128 24.8433C27.6176 24.8283 27.5263 24.7944 27.4443 24.7437C26.0051 23.9314 24.4184 23.4141 22.7769 23.2221C21.1355 23.0301 19.4723 23.1673 17.8844 23.6256C17.6991 23.6834 17.4984 23.6653 17.3264 23.5751C17.1545 23.4849 17.0254 23.3302 16.9676 23.1448C16.9098 22.9595 16.9279 22.7588 17.0181 22.5868C17.1083 22.4149 17.263 22.2858 17.4484 22.228C19.2466 21.7165 21.1285 21.5678 22.9847 21.7905C24.8409 22.0132 26.6343 22.6028 28.2605 23.525C28.3402 23.5735 28.4089 23.638 28.4622 23.7146C28.5155 23.7911 28.5523 23.8779 28.5702 23.9694C28.5881 24.061 28.5867 24.1552 28.5661 24.2462C28.5455 24.3372 28.5061 24.4228 28.4506 24.4977V24.4977ZM27.3325 27.1365C27.2946 27.2058 27.2426 27.2666 27.18 27.3148C27.1174 27.363 27.0454 27.3977 26.9686 27.4166C26.8919 27.4355 26.812 27.4383 26.7341 27.4247C26.6563 27.4111 26.5821 27.3815 26.5162 27.3377C24.28 25.9401 21.4289 25.6494 18.0633 26.4209C17.9094 26.4553 17.7481 26.4292 17.6128 26.348C17.4776 26.2669 17.3787 26.1368 17.3366 25.9848C17.3025 25.8323 17.3289 25.6725 17.4102 25.5391C17.4916 25.4056 17.6215 25.3089 17.7726 25.2692C21.4289 24.453 24.5931 24.7884 27.0977 26.3203C27.167 26.3582 27.2278 26.4101 27.276 26.4727C27.3242 26.5354 27.3589 26.6073 27.3778 26.6841C27.3967 26.7609 27.3995 26.8407 27.3859 26.9186C27.3723 26.9965 27.3427 27.0707 27.2989 27.1365H27.3325ZM22.8824 13.2496C20.4775 13.2423 18.156 14.1303 16.3698 15.7405C14.5836 17.3508 13.4606 19.5682 13.2193 21.9609C12.978 24.3537 13.6358 26.7506 15.0646 28.685C16.4933 30.6195 18.5908 31.953 20.9488 32.426C23.3067 32.899 25.7562 32.4777 27.8205 31.244C29.8849 30.0103 31.4162 28.0525 32.1165 25.7518C32.8168 23.4512 32.6358 20.9722 31.6089 18.7976C30.582 16.623 28.7826 14.9084 26.561 13.9875C25.3949 13.5032 24.1451 13.2525 22.8824 13.2496V13.2496Z" fill="white"/>
</g>
<defs>
<clipPath id="clip0_371_441">
<rect width="45.5294" height="45.5294" fill="white" transform="translate(0.117676)"/>
</clipPath>
</defs>
</svg>
