<svg width="46" height="46" viewBox="0 0 46 46" fill="none" xmlns="http://www.w3.org/2000/svg">
<g clip-path="url(#clip0_371_444)">
<path d="M23.0001 45.5294C35.5727 45.5294 45.7648 35.3373 45.7648 22.7647C45.7648 10.1921 35.5727 0 23.0001 0C10.4275 0 0.235352 10.1921 0.235352 22.7647C0.235352 35.3373 10.4275 45.5294 23.0001 45.5294Z" fill="black"/>
<path d="M32.8393 16.5366C32.1079 16.8806 31.3268 17.107 30.5248 17.2075C31.3761 16.6795 32.0076 15.8614 32.3026 14.9042C31.516 15.3921 30.6491 15.7366 29.7422 15.9217C29.3676 15.505 28.9087 15.1729 28.3959 14.9473C27.8831 14.7218 27.3282 14.608 26.768 14.6135C26.232 14.6208 25.7028 14.7336 25.2104 14.9454C24.7181 15.1573 24.2723 15.4641 23.8985 15.8482C23.5247 16.2324 23.2302 16.6864 23.0319 17.1844C22.8337 17.6824 22.7354 18.2145 22.7428 18.7505C22.7475 19.0697 22.7811 19.3878 22.8434 19.7009C21.23 19.6076 19.6545 19.1738 18.2208 18.428C16.787 17.6822 15.5273 16.6413 14.5247 15.3738C14.1673 16.0083 13.9823 16.7253 13.988 17.4535C13.9817 18.1285 14.1417 18.7947 14.4536 19.3933C14.7656 19.9919 15.2201 20.5046 15.777 20.8861C15.1356 20.8781 14.506 20.713 13.9433 20.4053V20.4053C13.9341 21.3529 14.2515 22.2747 14.842 23.0159C15.4325 23.7571 16.2601 24.2724 17.1858 24.4752C16.5924 24.6429 15.9674 24.6659 15.3633 24.5423C15.6112 25.3556 16.1083 26.0705 16.7844 26.586C17.4605 27.1016 18.2814 27.3919 19.1313 27.4158C17.7134 28.5705 15.9395 29.1986 14.111 29.1936C13.7897 29.1914 13.4688 29.1727 13.1494 29.1377C14.9886 30.3482 17.142 30.9934 19.3437 30.9938C26.768 30.9938 30.8379 24.6876 30.8379 19.2089C30.8379 19.03 30.8379 18.8511 30.8379 18.6722C31.6299 18.0886 32.3083 17.3648 32.8393 16.5366V16.5366Z" fill="white"/>
</g>
<defs>
<clipPath id="clip0_371_444">
<rect width="45.5294" height="45.5294" fill="white" transform="translate(0.235352)"/>
</clipPath>
</defs>
</svg>
