<svg width="46" height="46" viewBox="0 0 46 46" fill="none" xmlns="http://www.w3.org/2000/svg">
<g clip-path="url(#clip0_371_447)">
<path d="M23.1177 45.5294C35.6903 45.5294 45.8824 35.3373 45.8824 22.7647C45.8824 10.1921 35.6903 0 23.1177 0C10.5451 0 0.353027 10.1921 0.353027 22.7647C0.353027 35.3373 10.5451 45.5294 23.1177 45.5294Z" fill="black"/>
<path d="M32.2862 18.4936C32.1967 20.2826 30.9556 22.7313 28.5405 25.8508C26.1254 28.9703 23.9339 30.7146 22.1896 30.7146C21.1386 30.7146 20.2329 29.7306 19.495 27.7404C18.9807 25.9402 18.5222 24.1177 18.0079 22.3064C17.4936 20.4951 16.8898 19.3322 16.2301 19.3322C15.7177 19.5605 15.2367 19.8536 14.7989 20.2043L13.938 19.0862C14.8548 18.2924 15.7381 17.4873 16.6215 16.6935C17.3725 15.9098 18.3177 15.3388 19.3608 15.0387C20.792 14.8933 21.6641 15.8884 21.9996 17.9793C22.3574 20.2155 22.6033 21.6467 22.7375 22.1946C23.14 24.073 23.5985 24.9899 24.1016 24.9899C24.6048 24.9899 25.0632 24.3973 25.8347 23.1785C26.4436 22.3517 26.8635 21.4013 27.0646 20.3944C27.1764 19.3546 26.7627 18.8291 25.8347 18.8291C25.3641 18.8348 24.8997 18.9376 24.4706 19.131C25.3762 16.168 27.0981 14.7368 29.6362 14.8151C31.5035 14.871 32.398 16.1009 32.2862 18.4936Z" fill="white"/>
</g>
<defs>
<clipPath id="clip0_371_447">
<rect width="45.5294" height="45.5294" fill="white" transform="translate(0.353027)"/>
</clipPath>
</defs>
</svg>
