<svg width="46" height="46" viewBox="0 0 46 46" fill="none" xmlns="http://www.w3.org/2000/svg">
<g clip-path="url(#clip0_371_450)">
<path d="M23.2354 45.5294C35.808 45.5294 46.0001 35.3373 46.0001 22.7647C46.0001 10.1921 35.808 0 23.2354 0C10.6628 0 0.470703 10.1921 0.470703 22.7647C0.470703 35.3373 10.6628 45.5294 23.2354 45.5294Z" fill="black"/>
<path d="M21.7147 26.1192L27.5177 22.7649L21.7147 19.4106V26.1192ZM34.64 17.3644C34.8101 18.0613 34.9149 18.7725 34.9531 19.4888C35.0314 20.3833 35.0649 21.1548 35.0649 21.8257L35.132 22.7649C35.1891 24.5784 35.0239 26.392 34.64 28.1654C34.5275 28.6349 34.2872 29.0641 33.9458 29.4055C33.6044 29.7469 33.1752 29.9871 32.7057 30.0997C31.7301 30.2973 30.738 30.4022 29.7427 30.4128C28.2892 30.491 26.9586 30.5246 25.7287 30.5246L23.9509 30.5917C21.0236 30.7083 18.0919 30.5435 15.1961 30.0997C14.7266 29.9871 14.2974 29.7469 13.956 29.4055C13.6146 29.0641 13.3743 28.6349 13.2618 28.1654C13.0917 27.4685 12.9869 26.7573 12.9487 26.0409C12.8704 25.1465 12.8369 24.375 12.8369 23.7041L12.7698 22.7649C12.7127 20.9514 12.8779 19.1377 13.2618 17.3644C13.3743 16.8949 13.6146 16.4657 13.956 16.1243C14.2974 15.7829 14.7266 15.5426 15.1961 15.4301C16.1717 15.2324 17.1638 15.1276 18.1591 15.117C19.6126 15.0388 20.9432 15.0052 22.1731 15.0052L23.9509 14.9381C26.8782 14.8215 29.8099 14.9863 32.7057 15.4301C33.1649 15.5516 33.5823 15.7959 33.9133 16.1366C34.2442 16.4774 34.4761 16.9019 34.5841 17.3644H34.64Z" fill="white"/>
</g>
<defs>
<clipPath id="clip0_371_450">
<rect width="45.5294" height="45.5294" fill="white" transform="translate(0.470703)"/>
</clipPath>
</defs>
</svg>
